<svg width="25" height="25" viewBox="0 0 25 25" fill="none" xmlns="http://www.w3.org/2000/svg">
<path fill-rule="evenodd" clip-rule="evenodd" d="M8.0216 11.6902L13.8405 17.5091L20.132 11.218C20.512 10.838 20.512 10.2218 20.132 9.84184L15.6892 5.39903C15.3092 5.01904 14.6931 5.01903 14.3131 5.39901L8.0216 11.6902ZM13.6251 4.71095C14.3851 3.95098 15.6173 3.951 16.3772 4.71098L20.8201 9.15379C21.5801 9.9138 21.58 11.146 20.82 11.906L11.907 20.8189C11.147 21.579 9.91477 21.579 9.15475 20.819L4.71194 16.3762C3.95197 15.6162 3.95194 14.3841 4.71186 13.6241L13.6251 4.71095ZM7.33357 12.3783L5.39994 14.3121C5.01998 14.6921 5.02 15.3082 5.39999 15.6882L9.8428 20.131C10.2228 20.511 10.8389 20.511 11.2189 20.1309L13.1525 18.1972L7.33357 12.3783Z" fill="#555555"/>
<rect x="7.38379" y="11.7461" width="10.7576" height="8.87337" rx="1" transform="rotate(-45 7.38379 11.7461)" fill="#555555"/>
<path d="M10.501 13H11.261L12.0275 10.8315C12.1886 10.3967 12.3303 9.95109 12.472 9.5H12.4978C12.6459 9.94565 12.7876 10.3967 12.9486 10.8315L13.7087 13H14.501L12.9358 9H12.0662L10.501 13ZM11.3834 11.8641H13.5992V11.3696H11.3834V11.8641Z" fill="white"/>
<path d="M15.4951 13C15.6783 13 15.792 12.9753 15.8868 12.9506L15.792 12.521C15.7289 12.5309 15.7036 12.5309 15.672 12.5309C15.5835 12.5309 15.5014 12.4765 15.5014 12.3235V9H14.7686V12.2938C14.7686 12.7333 14.9644 13 15.4951 13Z" fill="white"/>
<path d="M17.1085 13C17.2917 13 17.4054 12.9753 17.5002 12.9506L17.4054 12.521C17.3422 12.5309 17.3169 12.5309 17.2854 12.5309C17.1969 12.5309 17.1148 12.4765 17.1148 12.3235V9H16.3819V12.2938C16.3819 12.7333 16.5778 13 17.1085 13Z" fill="white"/>
</svg>
