<svg width="25" height="25" viewBox="0 0 25 25" fill="none" xmlns="http://www.w3.org/2000/svg">
<path fill-rule="evenodd" clip-rule="evenodd" d="M8.0216 11.6902L13.8405 17.5091L20.132 11.218C20.512 10.838 20.512 10.2218 20.132 9.84184L15.6892 5.39903C15.3092 5.01904 14.6931 5.01903 14.3131 5.39901L8.0216 11.6902ZM13.6251 4.71095C14.3851 3.95098 15.6173 3.951 16.3772 4.71098L20.8201 9.15379C21.5801 9.9138 21.58 11.146 20.82 11.906L11.907 20.8189C11.147 21.579 9.91477 21.579 9.15475 20.819L4.71194 16.3762C3.95197 15.6162 3.95194 14.3841 4.71186 13.6241L13.6251 4.71095ZM7.33357 12.3783L5.39994 14.3121C5.01998 14.6921 5.02 15.3082 5.39999 15.6882L9.8428 20.131C10.2228 20.511 10.8389 20.511 11.2189 20.1309L13.1525 18.1972L7.33357 12.3783Z" fill="#555555"/>
</svg>
