<svg width="30" height="18" viewBox="0 0 30 18" fill="none" xmlns="http://www.w3.org/2000/svg">
<rect x="0.000976562" width="30" height="18" rx="4" fill="white"/>
<path d="M8.64659 14H9.34259V6.308C9.34259 5.408 9.65459 4.904 10.3266 4.904C10.5666 4.904 10.8306 4.952 11.0826 5.084L11.2626 4.52C10.9626 4.388 10.6146 4.316 10.2906 4.316C9.22259 4.316 8.64659 5 8.64659 6.272V14ZM7.77059 8.204H10.7946V7.604H8.67059L7.77059 7.664V8.204ZM12.1146 14H12.8226V7.604H12.1146V14ZM12.4746 6.104C12.7986 6.104 13.0386 5.888 13.0386 5.516C13.0386 5.192 12.7986 4.964 12.4746 4.964C12.1626 4.964 11.9226 5.192 11.9226 5.516C11.9226 5.888 12.1626 6.104 12.4746 6.104ZM16.0468 14.168C16.2748 14.168 16.3948 14.132 16.5268 14.096L16.4188 13.532C16.2868 13.556 16.2388 13.556 16.1788 13.556C16.0108 13.556 15.9028 13.424 15.9028 13.124V4.472H15.1948V13.052C15.1948 13.796 15.4708 14.168 16.0468 14.168ZM20.8423 14.168C21.7543 14.168 22.3663 13.856 22.8823 13.532L22.6063 13.016C22.1263 13.352 21.5983 13.568 20.9143 13.568C19.5223 13.568 18.5983 12.476 18.5743 10.928H23.1103C23.1343 10.76 23.1463 10.592 23.1463 10.424C23.1463 8.552 22.2103 7.448 20.6623 7.448C19.2223 7.448 17.8543 8.732 17.8543 10.82C17.8543 12.92 19.1863 14.168 20.8423 14.168ZM18.5623 10.376C18.7063 8.9 19.6303 8.036 20.6743 8.036C21.7903 8.036 22.4983 8.828 22.4983 10.376H18.5623Z" fill="black"/>
</svg>
