<svg width="20" height="20" viewBox="0 0 20 20" fill="none" xmlns="http://www.w3.org/2000/svg">
<path fill-rule="evenodd" clip-rule="evenodd" d="M7.03057 14.8843L14.6026 7.31225C15.2812 6.63371 15.2812 5.53358 14.6026 4.85505C13.9241 4.17651 12.824 4.17651 12.1454 4.85505L4.57336 12.4271L3.41111 16.0466L7.03057 14.8843ZM7.4736 15.6101L15.187 7.89665C16.1883 6.89536 16.1883 5.27194 15.187 4.27065C14.1857 3.26935 12.5623 3.26935 11.561 4.27065L3.84759 11.9841L2.62421 15.7939C2.41855 16.4343 3.02333 17.0391 3.66379 16.8335L7.4736 15.6101Z" fill="#2C2C2C"/>
<path fill-rule="evenodd" clip-rule="evenodd" d="M13.0323 9.28636L10.1396 6.39373L10.724 5.80933L13.6167 8.70196L13.0323 9.28636Z" fill="#2C2C2C"/>
</svg>
