<svg width="20" height="20" viewBox="0 0 20 20" fill="none" xmlns="http://www.w3.org/2000/svg">
<path fill-rule="evenodd" clip-rule="evenodd" d="M7.03057 14.8837L14.6026 7.31164C15.2812 6.6331 15.2812 5.53297 14.6026 4.85443C13.9241 4.1759 12.824 4.1759 12.1454 4.85444L4.57336 12.4265L3.41111 16.046L7.03057 14.8837ZM7.4736 15.6095L15.187 7.89604C16.1883 6.89475 16.1883 5.27133 15.187 4.27003C14.1857 3.26874 12.5623 3.26874 11.561 4.27004L3.84759 11.9835L2.62421 15.7933C2.41855 16.4337 3.02333 17.0385 3.66379 16.8328L7.4736 15.6095Z" fill="#2C2C2C"/>
<path fill-rule="evenodd" clip-rule="evenodd" d="M13.0323 9.28575L10.1396 6.39312L10.724 5.80872L13.6167 8.70135L13.0323 9.28575Z" fill="#2C2C2C"/>
<path d="M18.5 1L1 18.5" stroke="#F44336" stroke-linecap="round"/>
</svg>
